<?xml version="1.0" standalone="no"?><!DOCTYPE svg PUBLIC "-//W3C//DTD SVG 1.1//EN" "http://www.w3.org/Graphics/SVG/1.1/DTD/svg11.dtd"><svg class="icon" width="200px" height="200.00px" viewBox="0 0 1024 1024" version="1.1" xmlns="http://www.w3.org/2000/svg"><path d="M512 93.090909c230.4 0 418.909091 188.509091 418.909091 418.909091s-188.509091 418.909091-418.909091 418.909091S93.090909 742.4 93.090909 512 281.6 93.090909 512 93.090909m0-93.090909C228.072727 0 0 228.072727 0 512s228.072727 512 512 512 512-228.072727 512-512S795.927273 0 512 0z" fill="#1D2633" /><path d="M356.072727 716.8c-11.636364 0-23.272727-4.654545-32.581818-13.963636-18.618182-18.618182-18.618182-46.545455 0-65.163637l314.181818-314.181818c18.618182-18.618182 46.545455-18.618182 65.163637 0 18.618182 18.618182 18.618182 46.545455 0 65.163636L388.654545 702.836364c-9.309091 9.309091-20.945455 13.963636-32.581818 13.963636z" fill="#176AFD" /><path d="M670.254545 716.8c-11.636364 0-23.272727-4.654545-32.581818-13.963636L323.490909 388.654545c-18.618182-18.618182-18.618182-46.545455 0-65.163636 18.618182-18.618182 46.545455-18.618182 65.163636 0l314.181819 314.181818c18.618182 18.618182 18.618182 46.545455 0 65.163637-9.309091 9.309091-20.945455 13.963636-32.581819 13.963636z" fill="#176AFD" /></svg>